<svg xmlns="http://www.w3.org/2000/svg" viewBox="0 0 350 67"><defs><style>.a{fill:#333;}</style></defs><path class="a" d="M47.2,40.8h-17L24,57H18.35L35.79,10.73h6a4.09,4.09,0,0,1,2.5.61,5.83,5.83,0,0,1,1.53,2.5Q46.4,15.49,61.05,57H52.51Zm-1.34-4.09L39.39,17l-7.56,19.7Z"/><path class="a" d="M96.79,27.26a16,16,0,0,0-4-8.79,10,10,0,0,0-7.57-3.66q-5.61,0-9.21,5.43t-3.6,13.48a23.36,23.36,0,0,0,3.72,13.42q3.72,5.56,9.21,5.56,9.7,0,12-13.49l7.38,1.47q-2.93,16.71-19.34,16.71-9.33,0-15-6.16-5.86-6.4-5.86-17.51t5.8-17.26q5.61-6.17,15.06-6.16a19.06,19.06,0,0,1,12.33,4,19,19,0,0,1,6.52,11.28Z"/><path class="a" d="M146.14,33.6c2.36,0,3.46,1.37,3.29,4.09q-1.1,19.83-19.33,19.82-10,0-15.68-6.09t-5.73-17.21q0-11.34,6-17.69,5.69-6.09,15.44-6.1a18.94,18.94,0,0,1,11.4,3.48,17.58,17.58,0,0,1,6.65,9.88l-7.32,2.08a15.07,15.07,0,0,0-4.08-7.93A9.84,9.84,0,0,0,129.61,15q-5.93,0-9.52,5.61-3.47,5.37-3.47,13.6t3.53,13.48a11.51,11.51,0,0,0,9.95,5.43q5.61,0,8.78-5.18a21.13,21.13,0,0,0,2.81-10.49h-11.9l-.55-3.85Z"/><path class="a" d="M168,12.38c2,0,3.42.32,4.15,1s1,1.85,1,3.6V51.54H155.66V12.38Zm-1.28,4.08h-4.7v31h4.7Zm44-2.68-.49,4h-8.17c-1,3.5-1.91,6.31-2.69,8.42l-4.75-.85q.72-3.54,1.28-7.57h-7.26l1.4,7.26-7.5.86c-.12-1.83-.35-4.54-.67-8.12h-7.45l-.3-4h7.44l-.73-8.18,5.31-.48,1.7,8.66h8.61q.3-2.74.85-8.91l7.81.55q-.74,3.9-1.95,8.36ZM202.63,27.5c2.07,0,3.51.37,4.33,1.1s1.22,1.91,1.22,3.66V59.47H176.33v-32Zm-19.34,3.91V41H189V31.41Zm0,24.15H189v-11h-5.67ZM201.1,31.41h-5.73V41h5.73Zm0,24.15v-11h-5.73v11Z"/><path class="a" d="M271.13,43.79h-13.6v12.5q0,5.93-7.81,5.92H239.29L238.8,59h11V43.79H215l-.37-3.9h35.14v-5h7.75v5h14.15ZM228.49,33.18q-4.4,0-6-1.53c-1.06-1-1.58-2.81-1.58-5.37V7.86h38.18a1.78,1.78,0,0,1,1.77,2V22H228.19v7.81h38.73l-.43,3.36Zm.06,10.91q9.27,5.25,12.93,7.45l-4.63,5.91q-5-4.32-11.71-9.7Zm-.36-32.69v7.07h25.74V11.4Z"/><path class="a" d="M300.65,55.07q0,6.34-6.71,6.35h-5.3l-.49-3h5.61V47l-3.6,2.69-4.94-8.3a91.49,91.49,0,0,1-5.55,21l-4.33-1.22a100,100,0,0,0,4.15-25.49H276L275.64,32h4q.24-7.32.12-19.16h4.94c.37-1.54.81-4.19,1.34-7.93l8.36.8a56.23,56.23,0,0,1-3.54,7.13h7a2.73,2.73,0,0,1,2,.8,2.54,2.54,0,0,1,.85,1.95ZM288.27,38.85q4.94,5.43,5.49,6.1V35.68h-7.87c-.24,2.23-.45,3.94-.61,5.12Zm2.56-9.52-4.21-6c-.16,3.79-.3,6.67-.42,8.67h7.56V26.47Zm2.93-12.87h-7l-.07,4.46,1.77-1.59q4.4,3.9,5.31,4.82Zm39.1,40.81-.43,3.23h-9.51q-4.46,0-4.45-4.75l.06-25.26H313q-.86,20.5-8.79,31.66l-4-1.52q5.67-10.56,5.49-34.16H323.1c1.83,0,2.75.87,2.75,2.62l-.06,28.18Zm-31-42h10.86V5.05h7.44V15.24h11.65l-.42,4H302.12Z"/></svg>