<svg xmlns="http://www.w3.org/2000/svg" viewBox="0 0 350 67"><defs><style>.a{fill:#333;}</style></defs><path class="a" d="M85,36.44H74.87l-4,11.17H66.26l11-32h5.08a3.76,3.76,0,0,1,2.14.5,4.76,4.76,0,0,1,1.3,2.1q.51,1.39,9.79,29.36H88.4Zm-1-3.32-3.66-12-4.28,12Z"/><path class="a" d="M119.27,27.49a11.76,11.76,0,0,0-2.36-6A5.7,5.7,0,0,0,112.46,19c-2.27,0-4.11,1.23-5.54,3.7a17.14,17.14,0,0,0-2.1,8.82,17.1,17.1,0,0,0,2.1,8.73q2.22,3.87,5.67,3.87c3.83,0,6.19-3.07,7-9.2l6.3,1.22Q124.05,47.94,112.59,48q-6.72,0-10.54-4.24t-4-12.18q0-7.74,4-12t10.54-4.2A12.92,12.92,0,0,1,121,18.09,13.45,13.45,0,0,1,125.57,26Z"/><path class="a" d="M154.21,31.32q2.89,0,2.73,3.27-.75,13.53-13.31,13.53-7,0-11-4.2t-4.07-12q0-8,4.12-12.34,3.94-4.12,10.92-4.12a13,13,0,0,1,7.81,2.39,12.27,12.27,0,0,1,4.62,6.85l-6.26,1.76a10.31,10.31,0,0,0-2.35-5.37,5.62,5.62,0,0,0-4.29-2q-3.74,0-5.88,3.87a18.36,18.36,0,0,0-2,8.94,16.43,16.43,0,0,0,2.23,9c1.56,2.46,3.59,3.7,6.09,3.7q3.27,0,5.12-3.45a15.77,15.77,0,0,0,1.64-6.72H143.5l-.38-3.06Z"/><path class="a" d="M169.29,16.45q2.57,0,3.48.84a3.72,3.72,0,0,1,.89,2.9v24.1h-12.9V16.45Zm-1.18,3.36h-1.89V40.89h1.89Zm31.29-2.23-.33,3.24H194c-.67,2.15-1.31,4.06-1.93,5.71l-4-.67q.3-1.56.72-5h-4.16c.42,1.93.74,3.52,1,4.78l-6.46.72c-.06-1.32-.17-3.15-.34-5.5h-4.49l-.25-3.24h4.53L178.23,12l4.54-.37,1.22,6h5.16l.42-6.09,6.76.51q-.59,2.73-1.38,5.58Zm-6.13,9.54a5.46,5.46,0,0,1,3.61.92,3.8,3.8,0,0,1,1,3V49.8h-22.6V27.12Zm-12,3.15v6.25h2.6V30.27Zm0,16.38h2.6V39.42h-2.6Zm10.58-16.38h-2.48v6.25h2.48Zm0,16.38V39.42h-2.48v7.23Z"/><path class="a" d="M240.9,39h-9v7.56c0,3.3-2.2,5-6.6,5h-7.18l-.38-2.57h7.44V39H201.84l-.26-3.15h23.57v-2.9h6.72v2.9h9.45Zm-28.73-7.31q-3.69,0-5.13-1.34c-.89-.84-1.34-2.35-1.34-4.54V13.63h26.46a1.55,1.55,0,0,1,1.47,1.77v8.44H212V29h25.66l-.29,2.69Zm4.33,16.89q-3.5-2.94-8-6.51L211.33,39q5.63,2.68,9.11,4.49Zm-4.54-32V21h15.71V16.49Z"/><path class="a" d="M261.73,45.47q0,5.3-5.75,5.29h-3.2l-.29-2.39h3.32V40.93l-2.44,1.81-2.6-4.7a59,59,0,0,1-3.91,13.35l-3.61-1A70.68,70.68,0,0,0,246.06,33H244l-.21-3h2.4q.07-4,0-13.15h3.73c.17-1.12.31-2.9.42-5.33l7.23.71a41.66,41.66,0,0,1-2.4,4.62h4.2a2.53,2.53,0,0,1,1.73.63,2.32,2.32,0,0,1,.67,1.68Zm-8.86-10.42,2.94,3.07V33h-4.37l-.38,3.23Zm1-6.55c.22.37-.42-.61-1.94-2.94,0,1.51-.11,3-.25,4.5h4.12V26.61Zm1.93-8.73h-3.7l0,2.52.92-.84,2.82,2.31Zm27.55,28L283,50.26h-6.55q-3.57,0-3.57-3.78V29.85h-2.39q-.67,13.93-6.3,21.33l-3.32-1.26q3.66-6.89,3.44-23.31h2.15v0h10.29a2.08,2.08,0,0,1,2.39,2.31v18.9ZM262.19,18.55h6.68V11.7h6.38v6.85h7.27l-.29,3.23H262.4Z"/></svg>