<svg xmlns="http://www.w3.org/2000/svg" viewBox="0 0 318 52"><defs><style>.a{fill:#444;}</style></defs><path class="a" d="M27.27,29.18l1,5.74L10.86,37.84,5.61,49.34.36,47,20.68,2.58h5.24l18.55,39L39.28,44l-16-33.43L13.79,31.47Z"/><path class="a" d="M51.42,45,55.57,6.37,58.8,3.81,90.22,8.44l-.79,5.74L60.94,10,57.52,42.05l34.1-3.66.61,5.74-37.57,4Z"/><path class="a" d="M100.4,45.16l2.81-38.85,3.05-2.72,33.12,2.2L139,11.52l-30.2-1.95-2.38,32.79,29-1.47-1-11.4h-17l.25-5.74h19.52l2.74,3.05,1.59,16.53-2.69,3.18-35.38,1.7Z"/><path class="a" d="M147,16.43l2.5-3.17L161,11.74l3.29,2.86.61,23.67L162.5,41.2l-9.7,1.65-3.35-2.57ZM159.09,36l-.49-18.12-5.55.8,1.83,18Zm11.1-27.14L168.42,3.5l5.49-1.83,2.2,6.59,12.38-1L189.65.15l5.61.91-.92,5.67,6.1-.55.49,5.74-7.5.67-1.22,7.69-5.61-.92,1-6.28-9.63.79,1.34,3.9-5.49,1.83L172,14.42l-6.53.55L165,9.23ZM168.3,36.93l-2-10.74,2.63-3.47,29.28-2.2,3.05,3.29-3.11,23.61-2.63,2.44-21.77,1.83-3-2.26-1.35-6.83-1.4.18-.79-5.73Zm12.75-1.65-.8-7.62-7.68.55,1.46,8Zm1.09,10L181.72,41l-6.59.85.73,3.9Zm5.8-.49,4.82-.43,2.38-17.81-9.15.67.79,7.32,4.7-.61.67,5.73-4.7.61Z"/><path class="a" d="M244.67,35.16l1.16,10.28-2.14,3.08-11.47,2.9-1.46-5.49,9-2.32-.92-8.45h-31v-5.8H238.2L237.84,26H214.11l-2.87-3.26,1.1-18.91,2.8-3h33.19L251.13,4l-2.25,10.15-2.75,2.57H220.94L220.82,11h22.93l1-4.45H217.89l-.73,13.79h32.39l.73-3.88L256,17.51l-1.22,6.67-2.92,2.16h-8.18l.37,3h12.2v5.8Zm-31.78,4.21,4.33-3.81,9.45,11.28-4.33,3.66Z"/><path class="a" d="M278.58,31.07l4,8V29.55l-10.31.79-1.16,18.39h-5.79l1.09-17.84h-3.84L262.18,25h4.57l1-14.64L269,8.2,280.11.63l3.29,4.82L277.67,9.3l7.26-1.41,3.41,2.81V48.15L284.93,51l-10.25-1.71,1-5.73,6.89,1.16V40.41l-4.76,2.25-4.39-9.09Zm3.36-7.32h.61V14.24L273.16,16l-.55,8.46,3.23-.23-2.14-4.82L279,17Zm22.51,1.14-4.76.45L295.05,48.4l-5.73-1.16,5.12-25.07L297,19.79l9.94-1,3.11,2.81L311,44l3.84-2,2.74,5.13-7.93,4.14-4.2-2.5Zm-4.7-14.19-3.41-5.86,5.06-3,4.33,7.57,6.77-1.53,1.22,5.61-22,4.82-1.22-5.61Z"/></svg>