<svg xmlns="http://www.w3.org/2000/svg" viewBox="0 0 350 67"><defs><style>.a{fill:#333;}</style></defs><path class="a" d="M54.45,39.65H36.06L29.74,55H25.39L43.31,11.17h4.47c1.31,0,2.26.77,2.84,2.32L66.05,55H59.84Zm-1.1-3.13L46,15.75,37.4,36.52Z"/><path class="a" d="M101.31,26.25A14.68,14.68,0,0,0,97,17.78a11.41,11.41,0,0,0-8.18-3.42,11.83,11.83,0,0,0-9.86,5.22Q75,24.8,75,32.92t4.12,13.51q4,5.18,9.74,5.17,10.44,0,12.93-12.82l5.4,1Q104.16,55.3,88.9,55.31A18.15,18.15,0,0,1,75,49.45q-5.81-6.15-5.8-16.53,0-10.16,5.57-16.18,5.39-5.92,14.15-5.92a18.11,18.11,0,0,1,11.66,3.71A17.89,17.89,0,0,1,106.76,25Z"/><path class="a" d="M146.84,33q2.73,0,2.55,3.24-1,19.14-18.33,19.15-9.45,0-14.73-5.81T111,33.38q0-10.55,5.68-16.64,5.4-5.8,14.38-5.8a18,18,0,0,1,10.79,3.25,16.68,16.68,0,0,1,6.32,9.39L142.84,25q-2.67-10.5-12.12-10.5a12,12,0,0,0-10,5.28q-3.94,5.34-3.94,13.57t3.65,13.29a12.44,12.44,0,0,0,10.61,5.21,11,11,0,0,0,9.57-5.1,19,19,0,0,0,3.08-10.61H130.54L130.08,33Z"/><path class="a" d="M167.66,13.2a4.48,4.48,0,0,1,3.13.81,3.65,3.65,0,0,1,.82,2.73V49.28H156V13.2Zm-.81,3.19h-6.26V46.08h6.26Zm40.43-2-.41,3.13h-8.53c-.61,2.28-1.45,5-2.49,8.12l-3.48-.69c.39-1.63.89-4.1,1.51-7.43H185.7L187,24.68l-5.28.58-.76-7.77h-8.06l-.23-3.13h7.95q-.4-4-.87-7.83l3.82-.41,1.57,8.24h9.22q.41-2.55,1-8.64l5.51.46c-.47,2.71-1.05,5.43-1.74,8.18Zm-6.91,12.87a5.11,5.11,0,0,1,3.31.82,3.78,3.78,0,0,1,.87,2.84V56.7H175.14V27.23Zm-20.24,3v9.63h7.25V30.25Zm0,23.37h7.25V42.78h-7.25ZM199.5,30.25H192v9.63h7.48Zm0,23.37V42.78H192V53.62Z"/><path class="a" d="M264.93,41.91h-13.4V55.19q0,4.47-5.8,4.47h-9.86a22.39,22.39,0,0,1-.46-2.55H246V41.91H212l-.29-3.08H246V33.38h5.51v5.45h13.86ZM223.46,31.76c-2.09,0-3.52-.39-4.29-1.16s-1.16-2-1.16-3.89V8.5h36.07A1.27,1.27,0,0,1,255.42,10V21.32H223.11v7.77h38.28L261,31.76Zm1.22,10.67q9.91,6.49,12,8l-3.3,4.17q-7.08-6.09-11.2-9.51Zm-1.57-31.09v7.14h27.38V11.34Z"/><path class="a" d="M290,13.49c1.47,0,2.21.7,2.21,2.09V54.32q0,4.76-4.82,4.76h-5.68l-.47-2.38h6v-22h-9a96,96,0,0,1-5.46,25.4l-3.24-.93a104.3,104.3,0,0,0,4.06-24.47h-3.95l-.23-2.9h4.29q.24-5.69.23-18.27h4.18a72.35,72.35,0,0,0,2-7.77l5.92.58a69.44,69.44,0,0,1-3.37,7.19Zm-9.16,24.3q3.83,4.29,6.44,7.54l-3.43,2.55-5.45-8.41Zm6.44-6V26l-3,2.84Q282,25.5,279,21.61q-.06,3.83-.4,10.15Zm0-15.43H279c0,2.21,0,3.83-.06,4.87l2.09-1.74c2.86,2.79,4.95,4.87,6.27,6.27Zm36.3,39-.4,2.6h-9.05q-3.48,0-3.48-3.76l.17-25.12H303.5q-.64,19.79-7.95,30.8l-3-1.16q5.75-10.44,5.75-32.77h15.83a1.69,1.69,0,0,1,1.91,1.91l-.17,27.5ZM293.93,15.75h11.42V5.83h5.28v9.92h12.18l-.4,3.08H294.16Z"/></svg>