<svg xmlns="http://www.w3.org/2000/svg" viewBox="0 0 350 67"><defs><style>.a{fill:#444;}</style></defs><path class="a" d="M35.83,42.75H15.23L8.15,59.91H3.27L23.35,10.83h5c1.47,0,2.54.87,3.18,2.6L48.83,59.91H41.88ZM34.6,39.24,26.35,16,16.73,39.24Z"/><path class="a" d="M90.24,27.73a16.48,16.48,0,0,0-4.88-9.49,12.79,12.79,0,0,0-9.16-3.83q-6.69,0-11,5.85t-4.36,15q0,9.1,4.62,15.14,4.49,5.79,10.92,5.79,11.7,0,14.49-14.37l6.05,1.17Q93.42,60.3,76.33,60.3a20.35,20.35,0,0,1-15.6-6.57q-6.49-6.88-6.5-18.52,0-11.37,6.24-18.14,6-6.63,15.86-6.63,7.86,0,13.06,4.16a20,20,0,0,1,7,11.7Z"/><path class="a" d="M143.15,35.27c2,0,3,1.22,2.86,3.64q-1.11,21.45-20.54,21.45-10.6,0-16.51-6.5t-6-18.13q0-11.83,6.37-18.66,6-6.5,16.12-6.5a20.22,20.22,0,0,1,12.09,3.64,18.75,18.75,0,0,1,7.08,10.53l-6,1.63q-3-11.76-13.58-11.77-6.76,0-11.18,5.92t-4.42,15.21q0,9.3,4.09,14.88a13.93,13.93,0,0,0,11.9,5.85,12.28,12.28,0,0,0,10.72-5.72,21.4,21.4,0,0,0,3.45-11.89H124.88l-.52-3.58Z"/><path class="a" d="M168.37,13.11c1.73,0,2.9.3,3.51.91a4.1,4.1,0,0,1,.91,3.05V53.54H155.24V13.11Zm-.91,3.57h-7V50h7Zm45.3-2.27-.45,3.51h-9.56q-1,3.84-2.79,9.1l-3.9-.78q.65-2.73,1.69-8.32h-9.17L190,26l-5.91.65-.85-8.71h-9L174,14.41h8.9c-.3-3-.63-5.92-1-8.78l4.29-.45,1.75,9.23h10.34q.45-2.86,1.17-9.69l6.17.52c-.52,3-1.17,6.09-2,9.17ZM205,28.84a5.68,5.68,0,0,1,3.7.91,4.24,4.24,0,0,1,1,3.18V61.86h-33v-33Zm-22.69,3.38V43h8.13V32.22Zm0,26.19h8.13V46.26h-8.13Zm21.71-26.19h-8.38V43h8.38Zm0,26.19V46.26h-8.38V58.41Z"/><path class="a" d="M279.26,45.28h-15V60.17c0,3.33-2.16,5-6.5,5H246.69a27.91,27.91,0,0,1-.52-2.86h11.9v-17H220l-.33-3.44h38.42V35.73h6.17v6.11h15.54ZM232.78,33.91q-3.51,0-4.81-1.3c-.86-.78-1.3-2.23-1.3-4.36V7.84H267.1a1.43,1.43,0,0,1,1.5,1.63V22.21H232.39v8.71h42.9l-.39,3Zm1.37,12q11.11,7.27,13.45,9l-3.7,4.68Q236,52.69,231.35,48.86ZM232.39,11v8h30.68V11Z"/><path class="a" d="M309.29,13.43c1.64,0,2.47.78,2.47,2.34V59.19c0,3.56-1.8,5.33-5.4,5.33H300l-.52-2.66h6.76V37.16H296.16a108.18,108.18,0,0,1-6.11,28.47l-3.64-1A116.8,116.8,0,0,0,291,37.16h-4.42l-.26-3.25h4.81q.26-6.37.26-20.48H296a83,83,0,0,0,2.21-8.71l6.63.65a80.81,80.81,0,0,1-3.77,8.06ZM299,40.67q4.29,4.81,7.21,8.45L302.4,52l-6.11-9.43Zm7.21-6.76v-6.5l-3.31,3.18q-2.67-3.7-6.05-8.06c0,2.86-.19,6.66-.45,11.38Zm0-17.29h-9.29c0,2.47,0,4.29-.07,5.46l2.34-1.95q4.82,4.68,7,7Zm40.69,43.74-.45,2.93H336.33q-3.9,0-3.9-4.23l.19-28.14h-8.25q-.72,22.17-8.91,34.51l-3.31-1.3q6.44-11.7,6.43-36.72h17.75a1.89,1.89,0,0,1,2.14,2.14l-.19,30.81ZM313.64,16h12.81V4.85h5.91V16H346l-.45,3.44H313.9Z"/></svg>